<svg width="62" height="69" viewBox="0 0 62 69" fill="none" xmlns="http://www.w3.org/2000/svg">
<path d="M4.63843 34.4324C4.40005 34.4786 4.16543 34.4994 3.93497 34.4994C2.06608 34.4994 0.408834 33.0337 0.0628168 30.9537C-0.322022 28.6083 1.10113 26.3633 3.24293 25.9423C12.8826 24.0382 23.2373 18.6562 34.0464 10.0108L29.5014 3.97145L51.1879 0L43.4861 22.5563L39.0607 16.6772C27.0248 26.3887 15.7357 32.2426 4.63843 34.4324ZM11.4241 47.4369H9.0446C7.52148 47.4369 6.14571 49.3654 6.14571 51.7486V64.6863C6.14571 67.0702 7.52135 68.9987 9.0446 68.9987H11.4241C12.9513 68.9987 14.3226 67.0702 14.3226 64.6863V51.7486C14.3226 49.3654 12.9513 47.4369 11.4241 47.4369ZM42.6636 30.1872H39.6349C37.9783 30.1872 36.4771 32.1157 36.4771 34.4994V64.6863C36.4771 67.0702 37.9783 68.9987 39.6349 68.9987H42.6636C44.321 68.9987 45.8222 67.0702 45.8222 64.6863V34.4994C45.8222 32.1159 44.3209 30.1872 42.6636 30.1872ZM58.4137 21.5621H55.3845C53.7277 21.5621 52.2266 23.4911 52.2266 25.8747V64.6864C52.2266 67.0703 53.7277 68.9989 55.3845 68.9989H58.4137C60.0704 68.9989 61.5716 67.0703 61.5716 64.6864V25.8746C61.5718 23.4911 60.0704 21.5621 58.4137 21.5621ZM27.1737 38.8117H24.1453C22.4923 38.8117 20.9867 40.7409 20.9867 43.1243V64.6864C20.9867 67.0703 22.4922 68.9989 24.1453 68.9989H27.1737C28.831 68.9989 30.3321 67.0703 30.3321 64.6864V43.1243C30.3321 40.7409 28.831 38.8117 27.1737 38.8117Z" fill="#0088FF"/>
</svg>
