<svg width="49" height="43" viewBox="0 0 49 43" fill="none" xmlns="http://www.w3.org/2000/svg">
<path d="M14.9375 17.25C19.3903 17.25 23 13.7242 23 9.375C23 5.02576 19.3903 1.5 14.9375 1.5C10.4847 1.5 6.875 5.02576 6.875 9.375C6.875 13.7242 10.4847 17.25 14.9375 17.25Z" stroke="#00C8B3" stroke-width="3" stroke-linecap="round" stroke-linejoin="round"/>
<path d="M36.4375 17.25C40.8903 17.25 44.5 13.7242 44.5 9.375C44.5 5.02576 40.8903 1.5 36.4375 1.5C31.9847 1.5 28.375 5.02576 28.375 9.375C28.375 13.7242 31.9847 17.25 36.4375 17.25Z" stroke="#00C8B3" stroke-width="3" stroke-linecap="round" stroke-linejoin="round"/>
<path d="M1.5 40.875V35.625C1.5 27.75 8.08438 21.1875 16.2812 21.1875C24.4781 21.1875 31.0625 27.75 31.0625 35.625V40.875" stroke="#00C8B3" stroke-width="3" stroke-linecap="round" stroke-linejoin="round"/>
<path d="M27.0312 22.5H32.4062C40.6031 22.5 47.1875 29.0625 47.1875 36.9375V40.875" stroke="#00C8B3" stroke-width="3" stroke-linecap="round" stroke-linejoin="round"/>
</svg>
