<svg width="60" height="59" viewBox="0 0 60 59" fill="none" xmlns="http://www.w3.org/2000/svg">
<path d="M45.6 24.9607C44.8 25.1597 44.4 26.155 44.8 26.9513C45.8 29.34 46.2 31.9278 46.2 34.5156C46.2 46.4592 36.4 56.0141 24.6 56.0141C12.8 56.0141 3 46.4592 3 34.5156C3 22.5719 12.6 13.017 24.6 13.017C26.8 13.017 29.2 13.4151 31.4 14.0123C32.2 14.2114 33 13.8133 33.2 13.017C33.4 12.2208 33 11.4245 32.2 11.2255C29.8 10.4292 27.2 10.0311 24.6 10.0311C11 10.0311 0 20.9794 0 34.5156C0 48.0517 11 59 24.6 59C38.2 59 49.2 48.0517 49.2 34.5156C49.2 31.5297 48.6 28.5437 47.6 25.7569C47.4 25.1597 46.4 24.7616 45.6 24.9607ZM24.6 29.539C25.4 29.539 26.2 28.9419 26.2 27.9466C26.2 26.9513 25.6 26.3541 24.6 26.3541C20.2 26.3541 16.6 29.9372 16.6 34.3165C16.6 38.6958 20.2 42.2789 24.6 42.2789C29 42.2789 32.6 38.6958 32.6 34.3165C32.6 33.5203 32 32.724 31 32.724C30 32.724 29.6 33.7193 29.6 34.5156C29.6 37.3024 27.4 39.4921 24.6 39.4921C21.8 39.4921 19.6 37.3024 19.6 34.5156C19.6 31.7287 21.8 29.539 24.6 29.539ZM32 21.7757C32.4 20.9794 32 20.1832 31.2 19.7851C29.2 18.7898 26.8 18.3917 24.6 18.3917C15.6 18.3917 8.2 25.5578 8.2 34.5156C8.2 43.4733 15.6 50.8385 24.6 50.8385C33.6 50.8385 41 43.4733 41 34.5156C41 32.1268 40.6 29.9372 39.6 27.9466C39.2 27.1503 38.4 26.7522 37.6 27.1503C36.8 27.5484 36.6 28.3447 36.8 29.1409C37.6 30.9325 38 32.724 38 34.5156C38 41.8808 32 47.8526 24.6 47.8526C17.2 47.8526 11.2 41.8808 11.2 34.5156C11.2 27.1503 17.2 21.1785 24.6 21.1785C26.6 21.1785 28.4 21.5766 30 22.3729C30.8 22.771 31.6 22.3729 32 21.7757ZM59.2 11.8227C59 11.2255 58.6 10.8274 58 10.8274L49.8 9.43394L48.4 1.27246C48.4 0.675274 48 0.277153 47.4 0.0780924C46.8 -0.120968 46.2 0.0780924 45.8 0.476213L36 10.2302C35.6 10.6283 35.4 11.0264 35.6 11.6236L37.2 19.9841L24.6 32.525H24.4C23.2 32.525 22.2 33.5203 22.2 34.7146C22.2 35.909 23.2 36.9043 24.4 36.9043C25.6 36.9043 26.6 35.909 26.6 34.7146L39.4 21.9747L47.6 23.5672H47.8C48.2 23.5672 48.6 23.3682 48.8 23.1691L58.6 13.4151C59.2 13.017 59.4 12.4198 59.2 11.8227ZM38.8 11.6236L46 4.45742L47 10.0311L40 16.9982L38.8 11.6236ZM47.6 20.3823L42.2 19.387L49.2 12.4198L54.6 13.4151L47.6 20.3823Z" fill="#00C8B3"/>
</svg>
