<svg xmlns="http://www.w3.org/2000/svg" viewBox="0 0 96 96" width="32" height="32">
  <g id="icon">
    <path fill="#0039A1" d="M31.37,59.71c-2.75,0-5.54-.5-7.13-1.6a2.84,2.84,0,0,1-1.41-2.36,8.56,8.56,0,0,1,4.67-7.64.75.75,0,0,1,.69,1.34,7.05,7.05,0,0,0-3.86,6.3c0,.15,0,.6.76,1.13,2.23,1.54,8.13,1.83,11.47.56a.76.76,0,0,1,1,.44.74.74,0,0,1-.44,1A17,17,0,0,1,31.37,59.71Z"/>
    <path fill="#0039A1" d="M38.8,54a.74.74,0,0,1-.71-.51,7.16,7.16,0,0,0-3.51-4.07.75.75,0,0,1,.68-1.34A8.65,8.65,0,0,1,39.51,53,.75.75,0,0,1,39,54,.67.67,0,0,1,38.8,54Z"/>
    <path fill="#0039A1" d="M57.46,53.36a.66.66,0,0,1-.3-.07.75.75,0,0,1-.39-1,8.58,8.58,0,0,1,4-4.2.75.75,0,1,1,.68,1.34,7.05,7.05,0,0,0-3.27,3.46A.75.75,0,0,1,57.46,53.36Z"/>
    <path fill="#0039A1" d="M64.63,59.72a18.22,18.22,0,0,1-4.86-.6.75.75,0,0,1-.52-.92.76.76,0,0,1,.93-.52c3.55,1,8.92.57,10.84-.88.65-.5.65-.92.65-1a7.05,7.05,0,0,0-3.86-6.3.75.75,0,0,1,.69-1.34,8.56,8.56,0,0,1,4.67,7.64A2.78,2.78,0,0,1,71.92,58C70.36,59.17,67.47,59.72,64.63,59.72Z"/>
    <path fill="#0039A1" d="M48.38,65.58a25,25,0,0,1-8.3-1.26c-3.43-1.26-4.15-3-4.15-4.33a11.47,11.47,0,0,1,.16-2,12.4,12.4,0,0,1,2.09-5.17,12.56,12.56,0,0,1,4.57-4,.76.76,0,0,1,1,.32.75.75,0,0,1-.33,1,11.09,11.09,0,0,0-4,3.5,11,11,0,0,0-2,6.28c0,2.33,4.71,4.09,11,4.09S59.33,62.32,59.33,60a10.93,10.93,0,0,0-2.45-6.91,11.18,11.18,0,0,0-3.55-2.87A.75.75,0,0,1,54,48.88a12.73,12.73,0,0,1,4,3.25,12.52,12.52,0,0,1,2.68,6.17A12.19,12.19,0,0,1,60.83,60C60.83,63.85,54.58,65.58,48.38,65.58Z"/>
    <path fill="#0039A1" d="M48.06,88.43a.77.77,0,0,1-.53-.22.75.75,0,0,1-.22-.53v-8a.76.76,0,0,1,.75-.75,30.63,30.63,0,0,0,18-55.39.76.76,0,0,1-.16-1.05.75.75,0,0,1,1-.16A32.14,32.14,0,0,1,48.81,80.45v6.47A38.63,38.63,0,0,0,70.94,17.21a.75.75,0,0,1,.89-1.2A40.13,40.13,0,0,1,48.06,88.43Z"/>
    <path fill="#0039A1" d="M21.35,78a.74.74,0,0,1-.5-.2A40.13,40.13,0,0,1,48,8.15a1,1,0,0,1,.6.15.67.67,0,0,1,.23.27.66.66,0,0,1,.08.34v8a.75.75,0,0,1-.75.75H48A30.64,30.64,0,0,0,27.26,70.84a.75.75,0,0,1-1,1.11A32.14,32.14,0,0,1,47.41,16.13V9.66a38.64,38.64,0,0,0-38,38.63,38.73,38.73,0,0,0,12.5,28.44.75.75,0,0,1,.05,1.06A.76.76,0,0,1,21.35,78Z"/>
    <path fill="#0039A1" d="M49.16,23a1.77,1.77,0,0,1-.77-.18,1.75,1.75,0,0,1-1-1.57V4a1.75,1.75,0,0,1,2.82-1.38l11.15,8.65a1.73,1.73,0,0,1,0,2.75L50.23,22.67A1.78,1.78,0,0,1,49.16,23Zm0-19.29a.2.2,0,0,0-.11,0,.22.22,0,0,0-.14.22V21.29a.22.22,0,0,0,.14.22.23.23,0,0,0,.26,0l11.15-8.65h0a.24.24,0,0,0,.1-.2.23.23,0,0,0-.1-.19L49.31,3.8A.23.23,0,0,0,49.16,3.75Z"/>
    <path fill="#0039A1" d="M47.07,93.75A1.7,1.7,0,0,1,46,93.38L34.84,84.73h0a1.73,1.73,0,0,1,0-2.75L46,73.33a1.74,1.74,0,0,1,2.81,1.38V92a1.72,1.72,0,0,1-1,1.57A1.77,1.77,0,0,1,47.07,93.75Zm0-19.29a.23.23,0,0,0-.15.05L35.76,83.16a.25.25,0,0,0-.09.2.25.25,0,0,0,.09.19h0L46.92,92.2a.23.23,0,0,0,.26,0,.22.22,0,0,0,.13-.22V74.71a.22.22,0,0,0-.13-.22A.35.35,0,0,0,47.07,74.46Z"/>
    <path fill="#0039A1" d="M31.39,51.69c-3.17,0-5.73-3.87-5.73-7.08a5.73,5.73,0,1,1,11.45,0C37.11,47.82,34.56,51.69,31.39,51.69Zm0-11.31a4.24,4.24,0,0,0-4.23,4.23c0,2.46,2,5.58,4.23,5.58s4.22-3.12,4.22-5.58A4.23,4.23,0,0,0,31.39,40.38Z"/>
    <path fill="#0039A1" d="M64.61,51.69c-3.17,0-5.72-3.87-5.72-7.08a5.73,5.73,0,1,1,11.45,0C70.34,47.82,67.78,51.69,64.61,51.69Zm0-11.31a4.23,4.23,0,0,0-4.22,4.23c0,2.46,2,5.58,4.22,5.58s4.23-3.12,4.23-5.58A4.24,4.24,0,0,0,64.61,40.38Z"/>
    <path fill="#0039A1" d="M48.38,53.54c-4.55,0-8.21-5.61-8.21-10.25a8.21,8.21,0,0,1,16.42,0C56.59,47.93,52.93,53.54,48.38,53.54Zm0-16.95a6.72,6.72,0,0,0-6.71,6.7c0,3.86,3.16,8.75,6.71,8.75s6.71-4.89,6.71-8.75A6.72,6.72,0,0,0,48.38,36.59Z"/>
  </g>
</svg>