<svg xmlns="http://www.w3.org/2000/svg" viewBox="0 0 32 32" width="32" height="32">
  <g transform="translate(4, 4) scale(0.25)">
    <path fill="#0039A1" d="M45.63,16.17H2a.76.76,0,0,1-.75-.75V10.9A.76.76,0,0,1,2,10.15H45.63a.76.76,0,0,1,.75.75v4.52A.76.76,0,0,1,45.63,16.17ZM2.75,14.67H44.88v-3H2.75Z"/>
    <path fill="#0039A1" d="M45.63,80.59H2a.76.76,0,0,1-.75-.75V75.46A.76.76,0,0,1,2,74.71H45.63a.76.76,0,0,1,.75.75v4.38A.76.76,0,0,1,45.63,80.59ZM2.75,79.09H44.88V76.21H2.75Z"/>
    <path fill="#0039A1" d="M4.26,76.21h0a.75.75,0,0,1-.73-.78c.5-14.51,7.12-25.3,13.77-30-7.87-5.31-13.35-17.17-13.77-30a.75.75,0,0,1,.72-.77.76.76,0,0,1,.78.72c.42,12.88,6.06,24.7,14,29.4a.75.75,0,0,1,0,1.29C11.22,50.88,5.44,63,5,75.49A.75.75,0,0,1,4.26,76.21Z"/>
    <path fill="#0039A1" d="M43.37,76.21a.74.74,0,0,1-.75-.73c-.41-12.62-6.24-24.71-14.18-29.39a.76.76,0,0,1-.36-.64.74.74,0,0,1,.35-.65c6.48-4,13.68-14.87,14.19-29.41a.76.76,0,0,1,.77-.72.74.74,0,0,1,.72.78C43.69,27.86,38,40,30.21,45.43c7.95,5.36,13.49,17.22,13.91,30a.75.75,0,0,1-.73.77Z"/>
    <path fill="#0039A1" d="M39.4,76.21H8.23a.75.75,0,0,1-.74-.9c1.59-7.56,5.14-13.2,10-15.89A6.56,6.56,0,0,0,21,53.77V46a4.34,4.34,0,0,0-2.08-3.74C15.21,40.09,12,35.38,10,29a.73.73,0,0,1,.1-.67.78.78,0,0,1,.61-.31h26.2a.77.77,0,0,1,.61.31.76.76,0,0,1,.11.67c-2,6.37-5.22,11.09-8.94,13.29A4.34,4.34,0,0,0,26.61,46v7.58a6.47,6.47,0,0,0,3.49,5.67c4.84,2.58,8.41,8.26,10,16a.75.75,0,0,1-.73.9ZM9.16,74.71h29.3c-1.6-6.84-4.8-11.83-9.07-14.1a7.94,7.94,0,0,1-4.28-7V46a5.86,5.86,0,0,1,2.81-5c3.23-1.9,6-6,7.95-11.48H11.75c1.92,5.52,4.72,9.57,8,11.48a5.85,5.85,0,0,1,2.81,5v7.73a8,8,0,0,1-4.27,7C13.94,63.1,10.74,68.05,9.16,74.71Z"/>
    <path fill="#0039A1" d="M52.07,65H46.23a.75.75,0,0,1-.75-.75V46.91a.76.76,0,0,1,.75-.75h5.84a.76.76,0,0,1,.75.75V64.26A.75.75,0,0,1,52.07,65ZM47,63.51h4.34V47.66H47Z"/>
    <path fill="#0039A1" d="M62.52,65H56.69a.74.74,0,0,1-.75-.75V39.4a.75.75,0,0,1,.75-.75h5.83a.75.75,0,0,1,.75.75V64.26A.74.74,0,0,1,62.52,65Zm-5.08-1.5h4.33V40.15H57.44Z"/>
    <path fill="#0039A1" d="M67.14,56.32a.75.75,0,0,1-.75-.75v-22a.76.76,0,0,1,.75-.75H73a.76.76,0,0,1,.75.75V55.43a.75.75,0,0,1-1.5,0V34.29H67.89V55.57A.74.74,0,0,1,67.14,56.32Z"/>
    <path fill="#0039A1" d="M83.44,57.71a.74.74,0,0,1-.75-.75V26H78.35V52.18a.75.75,0,1,1-1.5,0V25.26a.76.76,0,0,1,.75-.75h5.84a.76.76,0,0,1,.75.75V57A.75.75,0,0,1,83.44,57.71Z"/>
    <path fill="#0039A1" d="M46.23,37.43a.75.75,0,0,1-.4-1.39L83,12.42a.76.76,0,0,1,1,.23.74.74,0,0,1-.23,1L46.63,37.31A.72.72,0,0,1,46.23,37.43Z"/>
    <path fill="#0039A1" d="M81.27,24.58h-.15a.75.75,0,0,1-.59-.88l2-10-10-2a.76.76,0,0,1-.58-.89.75.75,0,0,1,.88-.58l10.78,2.16a.75.75,0,0,1,.59.89L82,24A.74.74,0,0,1,81.27,24.58Z"/>
    <path fill="#0039A1" d="M76.53,74.73a7.08,7.08,0,1,1,7.08-7.08A7.09,7.09,0,0,1,76.53,74.73Zm0-12.66a5.58,5.58,0,1,0,5.58,5.58A5.58,5.58,0,0,0,76.53,62.07Z"/>
    <path fill="#0039A1" d="M78.38,83.87h-3.7a.74.74,0,0,1-.74-.62l-.43-2.48a13.11,13.11,0,0,1-4.13-1.7l-2,1.44a.74.74,0,0,1-1-.08l-2.62-2.62a.74.74,0,0,1-.08-1l1.44-2a13.37,13.37,0,0,1-1.71-4.13l-2.47-.43a.76.76,0,0,1-.62-.74V65.8a.74.74,0,0,1,.62-.74l2.47-.43a13.37,13.37,0,0,1,1.71-4.13l-1.44-2a.74.74,0,0,1,.08-1l2.62-2.62a.74.74,0,0,1,1-.08l2,1.44a13.37,13.37,0,0,1,4.13-1.71l.43-2.47a.74.74,0,0,1,.74-.62h3.7a.75.75,0,0,1,.74.62l.43,2.47a13.37,13.37,0,0,1,4.13,1.71l2-1.44a.74.74,0,0,1,1,.08l2.62,2.62a.74.74,0,0,1,.08,1L88,60.5a13,13,0,0,1,1.7,4.13l2.48.43a.74.74,0,0,1,.62.74v3.7a.76.76,0,0,1-.62.74l-2.48.43A13.11,13.11,0,0,1,88,74.8l1.44,2a.74.74,0,0,1-.08,1l-2.62,2.62a.74.74,0,0,1-1,.08l-2-1.44a13.11,13.11,0,0,1-4.13,1.7l-.43,2.48A.75.75,0,0,1,78.38,83.87Zm-3.07-1.5h2.44L78.16,80a.73.73,0,0,1,.6-.6,11.88,11.88,0,0,0,4.51-1.87.75.75,0,0,1,.85,0l2,1.37,1.72-1.73-1.37-2a.75.75,0,0,1,0-.85,11.88,11.88,0,0,0,1.87-4.51.73.73,0,0,1,.61-.6l2.35-.41V66.43L88.9,66a.76.76,0,0,1-.61-.6,11.81,11.81,0,0,0-1.87-4.51.77.77,0,0,1,0-.86L87.8,58.1l-1.72-1.72-2,1.37a.74.74,0,0,1-.85,0,12,12,0,0,0-4.51-1.86.74.74,0,0,1-.6-.61l-.41-2.35H75.31l-.41,2.35a.77.77,0,0,1-.6.61,12,12,0,0,0-4.51,1.86.75.75,0,0,1-.86,0l-2-1.37L65.26,58.1l1.37,1.95a.75.75,0,0,1,0,.86,12,12,0,0,0-1.86,4.51.77.77,0,0,1-.61.6l-2.35.41v2.44l2.35.41a.74.74,0,0,1,.61.6,12,12,0,0,0,1.86,4.51.74.74,0,0,1,0,.85l-1.37,2L67,78.92l2-1.37a.77.77,0,0,1,.86,0,11.88,11.88,0,0,0,4.51,1.87.76.76,0,0,1,.6.6ZM92,69.5h0Z"/>
    <path fill="#0039A1" d="M64.27,65H43.37a.75.75,0,0,1,0-1.5h20.9a.75.75,0,1,1,0,1.5Z"/>
  </g>
</svg>