<svg xmlns="http://www.w3.org/2000/svg" viewBox="0 0 32 32" width="32" height="32">
  <style type="text/css">
    .st0{fill:none;stroke:#0039A1;stroke-linecap:round;stroke-linejoin:round;stroke-miterlimit:10;}
  </style>
  <g>
    <path class="st0" d="M29.4,12C29.4,12,29.4,12.1,29.4,12c-0.2,0.3-0.3,0.4-0.5,0.6l-6.1,6.1c-2,0.6-3.6,2.2-4.2,4.2l-1.9,1.9c-0.3,0.3-0.7,0.6-1.1,0.8c-1.2,0.5-2.6,0.3-3.5-0.6L7,19.9c-0.9-0.9-1.1-2.3-0.6-3.5l0,0c0.2-0.4,0.4-0.8,0.8-1.1l1.9-1.9L19.4,3c0.2-0.2,0.3-0.3,0.5-0.4c0,0,0,0,0.1-0.1c0.9-0.6,2-0.7,3-0.4c0.4,0.1,0.8,0.4,1.1,0.7l5.1,5.1c0.3,0.3,0.5,0.7,0.7,1.1C30.2,10,30,11.1,29.4,12z"/>
    <path class="st0" d="M29.9,9c-0.1-0.4-0.4-0.8-0.7-1.1l-5.1-5.1c-0.3-0.3-0.7-0.5-1.1-0.7L31,1L29.9,9z"/>
    <path class="st0" d="M12.2,24.9l-3.4,1.9c0,0-0.8-3.4-3.7-3.7L7,19.7L12.2,24.9z"/>
    <path class="st0" d="M19.5,27.9c-1.3,1.5-3.1,3.1-3.1,3.1l0.3-1.3c0.3-1.5,0-3-0.9-4.2l0,0c0.4-0.2,0.8-0.4,1.1-0.8l1.9-1.9c-0.2,0.5-0.2,1.1-0.2,1.7C18.5,25.8,18.8,26.9,19.5,27.9z"/>
    <path class="st0" d="M6.5,16.3L6.5,16.3L6.5,16.3c-1.2-0.9-2.8-1.2-4.2-0.9L1,15.7c0,0,1.7-1.9,3.2-3.2c1.6-1.3,5,0.8,5,0.8l-1.9,1.9C7,15.5,6.7,15.9,6.5,16.3z"/>
    <g>
      <g>
        <g>
          <path class="st0" d="M26.3,22.4H25h-0.8c-0.6,0-1.1,0.5-1.1,1.1l0,0c0,0.6,0.5,1.1,1.1,1.1h1"/>
          <path class="st0" d="M25.2,24.6c0.6,0,1.1,0.5,1.1,1.1l0,0c0,0.6-0.5,1.1-1.1,1.1h-2.1"/>
        </g>
        <line class="st0" x1="25" y1="21.2" x2="25" y2="22.4"/>
        <line class="st0" x1="25" y1="26.8" x2="25" y2="28"/>
      </g>
    </g>
    <circle class="st0" cx="24.6" cy="24.5" r="6.1"/>
    <circle class="st0" cx="21.7" cy="10.3" r="3"/>
    <circle class="st0" cx="14.5" cy="17.5" r="3"/>
  </g>
</svg>