<svg xmlns="http://www.w3.org/2000/svg" viewBox="0 0 96 96" width="32" height="32">
  <g id="icon">
    <path fill="#0039A1" d="M93,89.42H3a.76.76,0,0,1-.75-.75V44.4A.76.76,0,0,1,3,43.65H93a.76.76,0,0,1,.75.75V88.67A.76.76,0,0,1,93,89.42ZM3.75,87.92h88.5V45.15H3.75Z"/>
    <path fill="#0039A1" d="M82,89.42H14a.76.76,0,0,1-.75-.75A10.29,10.29,0,0,0,3,78.4a.76.76,0,0,1-.75-.75V55.42A.76.76,0,0,1,3,54.67,10.28,10.28,0,0,0,13.27,44.4a.76.76,0,0,1,.75-.75H82a.76.76,0,0,1,.75.75A10.28,10.28,0,0,0,93,54.67a.76.76,0,0,1,.75.75V77.65a.76.76,0,0,1-.75.75A10.29,10.29,0,0,0,82.73,88.67.76.76,0,0,1,82,89.42Zm-67.23-1.5h66.5a11.8,11.8,0,0,1,11-11V56.15a11.8,11.8,0,0,1-11-11H14.75a11.8,11.8,0,0,1-11,11V76.92A11.8,11.8,0,0,1,14.75,87.92Z"/>
    <path fill="#0039A1" d="M48,53.46a.75.75,0,0,1-.75-.75V27.83a.75.75,0,0,1,1.5,0V52.71A.75.75,0,0,1,48,53.46Z"/>
    <path fill="#0039A1" d="M48,40a.76.76,0,0,1-.75-.75A15.26,15.26,0,0,1,62.49,24a.74.74,0,0,1,.75.75A15.26,15.26,0,0,1,48,40ZM61.72,25.56a13.76,13.76,0,0,0-12.95,13A13.75,13.75,0,0,0,61.72,25.56Z"/>
    <path fill="#0039A1" d="M48.07,28.58a.75.75,0,0,1-.53-.22,15.23,15.23,0,0,1,0-21.56.75.75,0,0,1,.53-.22h0a.75.75,0,0,1,.53.22,15.27,15.27,0,0,1,0,21.56A.75.75,0,0,1,48.07,28.58Zm0-20.16a13.77,13.77,0,0,0,0,18.32A13.77,13.77,0,0,0,48.07,8.42Z"/>
    <path fill="#0039A1" d="M48,40A15.23,15.23,0,0,1,32.76,24.79a.74.74,0,0,1,.75-.75A15.26,15.26,0,0,1,48.75,39.28.76.76,0,0,1,48,40ZM34.28,25.56a13.77,13.77,0,0,0,12.95,13A13.77,13.77,0,0,0,34.28,25.56Z"/>
    <path fill="#0039A1" d="M18.39,71.42a4.89,4.89,0,1,1,4.89-4.88A4.89,4.89,0,0,1,18.39,71.42Zm0-8.27a3.39,3.39,0,1,0,3.39,3.39A3.39,3.39,0,0,0,18.39,63.15Z"/>
    <path fill="#0039A1" d="M77.61,71.42a4.89,4.89,0,1,1,4.88-4.88A4.89,4.89,0,0,1,77.61,71.42Zm0-8.27A3.39,3.39,0,1,0,81,66.54,3.39,3.39,0,0,0,77.61,63.15Z"/>
    <path fill="#0039A1" d="M48,81.11A14.58,14.58,0,1,1,62.57,66.54,14.59,14.59,0,0,1,48,81.11Zm0-27.65A13.08,13.08,0,1,0,61.07,66.54,13.09,13.09,0,0,0,48,53.46Z"/>
    <path fill="#0039A1" d="M48,75.6a5.46,5.46,0,0,1-5.55-4.2.75.75,0,0,1,1.48-.24A4,4,0,0,0,48,74.1a4.19,4.19,0,0,0,3.89-2.3,3.21,3.21,0,0,0-1.28-3.88A7,7,0,0,0,48,67.27a11.14,11.14,0,0,1-2.24-.41,4.82,4.82,0,0,1-3.36-4.48c0-2.71,2.52-4.91,5.61-4.91a5.51,5.51,0,0,1,5.49,3.9.75.75,0,0,1-.55.9.76.76,0,0,1-.91-.55A4,4,0,0,0,48,59c-2.26,0-4.11,1.53-4.11,3.41a3.31,3.31,0,0,0,2.33,3.05,9.65,9.65,0,0,0,2,.35,8.18,8.18,0,0,1,3.18.84,4.68,4.68,0,0,1,1.92,5.75A5.63,5.63,0,0,1,48,75.6Z"/>
    <path fill="#0039A1" d="M48,59a.75.75,0,0,1-.75-.75v-2.3a.75.75,0,0,1,1.5,0v2.3A.74.74,0,0,1,48,59Z"/>
    <path fill="#0039A1" d="M48,77.9a.75.75,0,0,1-.75-.75v-2.3a.75.75,0,0,1,1.5,0v2.3A.74.74,0,0,1,48,77.9Z"/>
  </g>
</svg>