<svg width="51" height="51" viewBox="0 0 51 51" fill="none" xmlns="http://www.w3.org/2000/svg">
<g clip-path="url(#clip0_494_174)">
<path d="M39.2565 33.0312C36.5276 33.0312 34.083 34.3388 32.548 36.3287L18.7328 28.3125C19.5856 26.209 19.5856 23.878 18.7328 21.7745L32.548 13.7583C34.083 15.7481 36.5276 17.0557 39.2565 17.0557C43.9753 17.0557 47.7844 13.2466 47.7844 8.52786C47.7844 3.80911 43.9753 0 39.2565 0C34.5378 0 30.7287 3.80911 30.7287 8.52786C30.7287 9.66491 30.9561 10.802 31.3541 11.7684L17.5389 19.8415C15.9471 17.8517 13.5593 16.544 10.8303 16.544C6.1116 16.544 2.30249 20.3532 2.30249 25.0719C2.30249 29.7907 6.1116 33.5998 10.8303 33.5998C13.5593 33.5998 16.0039 32.2922 17.5389 30.3023L31.3541 38.3185C30.9561 39.285 30.7287 40.4221 30.7287 41.5591C30.7287 46.2778 34.5378 50.087 39.2565 50.087C43.9753 50.087 47.7844 46.2778 47.7844 41.5591C47.7844 36.8404 43.9753 33.0312 39.2565 33.0312ZM39.2565 2.33095C42.7245 2.33095 45.5103 5.11672 45.5103 8.58471C45.5103 12.0527 42.7245 14.8385 39.2565 14.8385C35.7886 14.8385 33.0028 12.0527 33.0028 8.58471C33.0028 5.11672 35.7886 2.33095 39.2565 2.33095ZM10.8303 31.3257C7.36235 31.3257 4.57659 28.5399 4.57659 25.0719C4.57659 21.6039 7.36235 18.8181 10.8303 18.8181C14.2983 18.8181 17.0841 21.6039 17.0841 25.0719C17.0841 28.5399 14.2983 31.3257 10.8303 31.3257ZM39.2565 47.8129C35.7886 47.8129 33.0028 45.0271 33.0028 41.5591C33.0028 38.0911 35.7886 35.3053 39.2565 35.3053C42.7245 35.3053 45.5103 38.0911 45.5103 41.5591C45.5103 45.0271 42.7245 47.8129 39.2565 47.8129Z" fill="white"/>
</g>
<defs>
<clipPath id="clip0_494_174">
<rect width="50.087" height="50.087" fill="white"/>
</clipPath>
</defs>
</svg>
