<svg width="64" height="64" viewBox="0 0 64 64" fill="none" xmlns="http://www.w3.org/2000/svg">
<path d="M2 32C2 26.0666 3.75947 20.2664 7.05591 15.3329C10.3524 10.3994 15.0377 6.55426 20.5195 4.28363C26.0013 2.013 32.0333 1.4189 37.8527 2.57645C43.6721 3.73401 49.0176 6.59123 53.2132 10.7868C57.4088 14.9824 60.266 20.3279 61.4236 26.1473C62.5811 31.9667 61.987 37.9987 59.7164 43.4805C57.4458 48.9623 53.6006 53.6477 48.6671 56.9441C43.7336 60.2405 37.9334 62 32 62C24.0435 62 16.4129 58.8393 10.7868 53.2132C5.1607 47.5871 2 39.9565 2 32ZM6 32C6 37.1423 7.52487 42.1692 10.3818 46.4448C13.2387 50.7205 17.2994 54.053 22.0502 56.0209C26.8011 57.9888 32.0288 58.5036 37.0723 57.5004C42.1159 56.4972 46.7486 54.021 50.3848 50.3848C54.0209 46.7486 56.4972 42.1159 57.5004 37.0724C58.5036 32.0289 57.9887 26.8011 56.0209 22.0502C54.053 17.2994 50.7205 13.2387 46.4448 10.3818C42.1691 7.52489 37.1423 6.00001 32 6.00001C25.1044 6.00001 18.4912 8.73929 13.6152 13.6152C8.73928 18.4912 6 25.1044 6 32Z" fill="#0039A1"/>
<path d="M20.82 39.74L32 28.58L43.18 39.74C43.5548 40.1125 44.0617 40.3216 44.59 40.3216C45.1184 40.3216 45.6253 40.1125 46 39.74C46.3725 39.3653 46.5816 38.8584 46.5816 38.33C46.5816 37.8016 46.3725 37.2947 46 36.92L33.28 24.2C32.9393 23.8629 32.4793 23.6738 32 23.6738C31.5207 23.6738 31.0608 23.8629 30.72 24.2L18 36.92C17.6275 37.2947 17.4185 37.8016 17.4185 38.33C17.4185 38.8584 17.6275 39.3653 18 39.74C18.3748 40.1125 18.8817 40.3216 19.41 40.3216C19.9384 40.3216 20.4453 40.1125 20.82 39.74Z" fill="#0039A1"/>
</svg>
