<svg width="44" height="44" viewBox="0 0 44 44" fill="none" xmlns="http://www.w3.org/2000/svg">
<g clip-path="url(#clip0_494_166)">
<path d="M42.5392 21.2443C42.5308 24.8845 41.7405 28.096 40.1432 31.0804C38.6384 33.8968 36.5618 36.2423 33.9473 38.0918C31.6522 39.7144 29.1385 40.8241 26.3895 41.3957C23.3461 42.0263 20.3028 41.959 17.2848 41.236C15.6874 40.8493 14.1574 40.2608 12.7198 39.479C12.476 39.3445 12.2658 39.3361 12.0052 39.4201C8.83579 40.4374 5.66637 41.4462 2.49696 42.455C2.13546 42.5727 1.78237 42.682 1.42087 42.8165C1.16867 42.909 1.15185 42.8165 1.21911 42.6063C1.58901 41.5219 1.95051 40.4374 2.32041 39.3445C3.11067 36.9821 3.90092 34.6198 4.70798 32.2658C4.81727 31.9548 4.65754 31.753 4.53144 31.5344C3.53942 29.811 2.83324 27.9783 2.39608 26.0447C1.44609 21.8749 1.78237 17.7891 3.37969 13.8294C4.30445 11.5427 5.62434 9.49145 7.31413 7.67555C9.46631 5.35524 12.0136 3.64863 14.956 2.50529C17.7051 1.43761 20.5466 1.02567 23.4723 1.20222C27.4824 1.44602 31.131 2.77431 34.334 5.19551C38.4786 8.32289 41.0848 12.4339 42.1272 17.5369C42.4047 18.84 42.5055 20.1598 42.5392 21.2443ZM22.0683 4.60702C21.2864 4.5734 20.3701 4.66587 19.4537 4.80038C19.0922 4.85083 18.7391 4.92649 18.3861 5.01896C12.9216 6.40611 8.99552 9.668 6.68361 14.8046C5.34691 17.7723 4.98541 20.9081 5.48983 24.1195C5.88495 26.6584 6.82653 28.9955 8.29774 31.1057C8.45747 31.3411 8.4827 31.5428 8.39022 31.8034C7.76811 33.6277 7.16281 35.4605 6.5491 37.2932C6.51547 37.3941 6.41459 37.5117 6.50707 37.6042C6.59954 37.7051 6.71724 37.5958 6.81812 37.5622C8.65924 36.9737 10.5004 36.3936 12.3247 35.7799C12.745 35.637 13.0477 35.7043 13.4092 35.9228C17.537 38.4029 21.9506 39.0586 26.5996 37.8228C30.1305 36.8896 33.0393 34.9644 35.3428 32.1229C37.5707 29.3738 38.8149 26.2296 39.0671 22.7156C39.2605 20.0169 38.8401 17.394 37.764 14.8887C36.4105 11.7361 34.3004 9.21402 31.4504 7.33928C28.6593 5.50657 25.574 4.56499 22.0683 4.60702Z" fill="white"/>
<path d="M12.0305 16.6121C12.0641 14.7206 12.804 13.1653 14.2499 11.9547C14.6619 11.61 15.1579 11.4671 15.7043 11.5596C15.9397 11.5932 16.1835 11.6268 16.4105 11.6016C16.9822 11.5596 17.3101 11.879 17.4866 12.3498C18.0247 13.7622 18.5459 15.1829 19.0755 16.5953C19.1764 16.8643 19.1512 17.1081 19.0251 17.3603C18.6972 18.0413 18.176 18.5709 17.6548 19.1006C17.2008 19.5629 17.1756 19.7143 17.4866 20.2775C18.9915 23.0014 21.068 25.1199 23.9431 26.4062C24.0861 26.465 24.2122 26.5659 24.3467 26.6248C24.7082 26.8013 25.036 26.7845 25.3387 26.4734C25.9272 25.8766 26.4736 25.2376 27.0033 24.5819C27.4152 24.0691 27.6086 23.9934 28.1886 24.254C29.601 24.9098 30.9461 25.6748 32.3164 26.4146C32.7704 26.6584 32.8209 26.9947 32.7536 27.6084C32.4762 30.1052 30.5678 31.2402 28.3904 31.6017C27.659 31.7194 26.9696 31.6521 26.2803 31.4335C24.2626 30.7946 22.2786 30.0548 20.4963 28.8946C18.8317 27.8102 17.4025 26.4566 16.1499 24.9182C14.9309 23.4133 13.8464 21.8244 12.9469 20.101C12.4425 19.1174 12.0305 17.5873 12.0305 16.6121Z" fill="white"/>
</g>
<defs>
<clipPath id="clip0_494_166">
<rect width="43.0435" height="43.0435" fill="white"/>
</clipPath>
</defs>
</svg>
